<svg xmlns="http://www.w3.org/2000/svg" class="arrow-decor"  viewBox="0 0 16 28"><path d="M24.854,7.516A14.681,14.681,0,0,1,17.729,1.87c-.109-.169-.115-.279.052-.414q.826-.67,1.632-1.362c.26-.224.31,0,.4.144a29.964,29.964,0,0,0,1.724,2.5,15.86,15.86,0,0,0,6,4.477c.245.109.534.161.452.525-.087.389.184.847-.448,1.1a15.046,15.046,0,0,0-6.174,4.638,17.255,17.255,0,0,0-1.511,2.276c-.147.26-.247.348-.514.105-.461-.417-.947-.812-1.439-1.2-.257-.2-.293-.35-.1-.64a14.506,14.506,0,0,1,6-5.045c.365-.172.736-.335,1.1-.5l-.029-.121a15.081,15.081,0,0,0-1.768.157,31.7,31.7,0,0,1-6.545.545c-5.327-.025-10.654-.015-15.981,0-.444,0-.57-.112-.523-.513.06-.513-.226-1.206.114-1.5.3-.255,1.019-.076,1.553-.076,5.188,0,10.377.013,15.565-.009a26.514,26.514,0,0,1,5.307.462,13.108,13.108,0,0,0,1.852.205c.131.007.275.059.407-.11" transform="translate(16) rotate(90)" fill="var(--dark)"></path></svg>